<svg id="Layer_1" data-name="Layer 1" xmlns="http://www.w3.org/2000/svg" viewBox="0 0 28.61 28.58"><defs><style>.cls-1{fill:#603494;}.cls-2{fill:#fff;}</style></defs><path class="cls-1" d="M15,.71A14.29,14.29,0,1,1,.7,15,14.25,14.25,0,0,1,15,.71Zm.54,9.57H8.4c-.38,0-.52.14-.52.51v.73a1.07,1.07,0,0,0,1,1c.32,0,.64,0,1,0s.25,0,.25.25c0,.61,0,1.21,0,1.82,0,.95,0,1.91.1,2.85A3.74,3.74,0,0,0,11.33,20a4.28,4.28,0,0,0,3.58,1c.48-.05.95-.19,1.45-.29v.27c0,.79,0,1.58,0,2.37a1.19,1.19,0,0,0,1.09,1.1,10,10,0,0,0,1.1,0c.53,0,.71-.18.71-.71V12.49H21c.37,0,.51-.15.52-.52v-.59a1.09,1.09,0,0,0-1.18-1.18H18.72a.41.41,0,0,1-.28-.13c-.32-.34-.62-.7-.93-1.05l-3.32-3.8a1.51,1.51,0,0,0-1.57-.54c-.57.14-1.14.33-1.7.51a.36.36,0,0,0-.19.53,1.75,1.75,0,0,0,.19.2l4,3.8Z" transform="translate(-0.7 -0.71)"/><path class="cls-2" d="M15.53,10.28l-.6-.57-4-3.8a1.75,1.75,0,0,1-.19-.2.36.36,0,0,1,.19-.53c.56-.18,1.13-.37,1.7-.51a1.51,1.51,0,0,1,1.57.54L17.51,9c.31.35.61.71.93,1.05a.41.41,0,0,0,.28.13h1.63a1.09,1.09,0,0,1,1.18,1.18V12c0,.37-.15.52-.52.52H19.29v11.2c0,.53-.18.72-.71.71a10,10,0,0,1-1.1,0,1.19,1.19,0,0,1-1.09-1.1c0-.79,0-1.58,0-2.37v-.27c-.5.1-1,.24-1.45.29a4.28,4.28,0,0,1-3.58-1,3.74,3.74,0,0,1-1.19-2.47c-.1-.94-.08-1.9-.1-2.85,0-.61,0-1.21,0-1.82,0-.2-.06-.25-.25-.25s-.64,0-1,0a1.07,1.07,0,0,1-1-1v-.73c0-.37.14-.51.52-.51h7.13Zm.83,5.09c0-.84,0-1.68,0-2.53,0-.2,0-.28-.26-.28h-3c-.19,0-.25.06-.25.25,0,1.15,0,2.31,0,3.47a6.3,6.3,0,0,0,0,.75,1.49,1.49,0,0,0,1.25,1.35,3.85,3.85,0,0,0,2-.16.27.27,0,0,0,.21-.31C16.35,17.06,16.36,16.22,16.36,15.37Z" transform="translate(-0.7 -0.71)"/><path class="cls-1" d="M16.36,15.37c0,.85,0,1.69,0,2.54a.27.27,0,0,1-.21.31,3.85,3.85,0,0,1-2,.16A1.49,1.49,0,0,1,12.94,17a6.3,6.3,0,0,1,0-.75c0-1.16,0-2.32,0-3.47,0-.19.06-.25.25-.25h3c.22,0,.26.08.26.28C16.35,13.69,16.36,14.53,16.36,15.37Z" transform="translate(-0.7 -0.71)"/></svg>