<svg xmlns="http://www.w3.org/2000/svg" width="29.881" height="29.925" viewBox="0 0 29.881 29.925">
  <g id="Group_75043" data-name="Group 75043" transform="translate(4765.284 5367.696)">
    <path id="Path_171158" data-name="Path 171158" d="M1656.5-43.862a14.9,14.9,0,0,1,15.25-14.961,14.95,14.95,0,0,1,14.628,14.746A14.956,14.956,0,0,1,1671.491-28.9,14.909,14.909,0,0,1,1656.5-43.862Zm16.9,6.505v.319c0,1.016,0,2.033,0,3.049,0,.45.085.531.527.532q.719,0,1.439,0c.456,0,.565-.108.565-.557q0-3.085,0-6.171,0-2.646,0-5.293c0-.543-.065-.484.476-.488.358,0,.715,0,1.073,0,.393-.007.559-.181.559-.573q0-.683,0-1.366c0-.482-.153-.634-.644-.634-.772,0-1.545.005-2.317-.005a.373.373,0,0,1-.276-.133c-.451-.75-.89-1.508-1.326-2.266-.735-1.279-1.464-2.56-2.2-3.839a.509.509,0,0,0-.466-.3c-.626.006-1.252,0-1.878,0a.429.429,0,0,0-.376.671,2.753,2.753,0,0,0,.19.283l3.462,4.644c.224.3.444.6.692.941h-7.487c-.451,0-.611.166-.61.62s0,.894,0,1.341.16.606.6.611.878.01,1.317,0c.2-.007.247.054.245.248-.008,1.35-.017,2.7.006,4.049a5.772,5.772,0,0,0,.173,1.4,4.268,4.268,0,0,0,1.532,2.312,4.232,4.232,0,0,0,3.3.934C1672.454-37.1,1672.919-37.245,1673.4-37.357Z" transform="translate(-6421.783 -5308.87)" fill="#673bb7"/>
    <path id="Path_171166" data-name="Path 171166" d="M1835.439,35.624c-.485.112-.949.253-1.425.323a4.467,4.467,0,0,1-4.831-3.245,5.766,5.766,0,0,1-.173-1.4c-.023-1.349-.013-2.7-.006-4.049,0-.193-.049-.254-.245-.248-.438.015-.878.009-1.317,0s-.6-.171-.6-.611,0-.894,0-1.341.16-.619.61-.62h7.487c-.248-.337-.468-.641-.692-.941q-1.73-2.322-3.461-4.644a2.734,2.734,0,0,1-.19-.283.429.429,0,0,1,.376-.671c.626-.007,1.252,0,1.878,0a.509.509,0,0,1,.466.3c.734,1.279,1.463,2.561,2.2,3.839.436.759.875,1.516,1.326,2.266a.373.373,0,0,0,.276.133c.772.01,1.545.005,2.317.005.49,0,.645.152.644.634q0,.683,0,1.366c0,.391-.166.566-.559.573-.358.006-.715,0-1.073,0-.541,0-.475-.055-.476.488q0,2.646,0,5.293,0,3.085,0,6.171c0,.45-.108.557-.565.557q-.719,0-1.439,0c-.442,0-.525-.082-.527-.532,0-1.016,0-2.033,0-3.049Zm-.014-8.6c-.057,0-.1-.007-.135-.007-1.137,0-2.275.005-3.412,0-.233,0-.309.071-.306.306.011,1.024,0,2.047.006,3.071,0,.447,0,.894.02,1.34a1.925,1.925,0,0,0,3.837-.242c.016-1.405.005-2.811,0-4.217C1835.439,27.188,1835.43,27.109,1835.424,27.019Z" transform="translate(-6583.818 -5381.851)" fill="#fff"/>
    <path id="Path_171172" data-name="Path 171172" d="M1927.6,204.679c.005.089.015.168.015.247,0,1.406.011,2.811-.005,4.217a1.925,1.925,0,0,1-3.837.242c-.017-.446-.019-.893-.02-1.34,0-1.024,0-2.048-.006-3.071,0-.235.073-.308.306-.306,1.137.01,2.275,0,3.412,0C1927.5,204.673,1927.543,204.676,1927.6,204.679Z" transform="translate(-6675.994 -5559.511)" fill="#673bb7"/>
  </g>
</svg>
