<svg id="Layer_1" data-name="Layer 1" xmlns="http://www.w3.org/2000/svg" viewBox="0 0 2241.17 607.43"><defs><style>.cls-1{fill:#603494;}.cls-2{fill:#fff;}</style></defs><path class="cls-1" d="M368.15,90.82c168.4-.06,304.71,135.24,304.24,304C671.9,570,529.55,698.63,368.05,698.24c-167.56-.39-304.44-136.42-303.63-303.8C65.28,218.56,207.73,90.45,368.15,90.82ZM379.69,294.3h-7.37q-72.13,0-144.26,0c-7.95,0-10.87,2.92-10.91,10.77,0,5.18-.08,10.36,0,15.53.21,11.18,9,20.89,20.16,21.76a194.94,194.94,0,0,0,20.37.38c3.94-.09,5.36,1,5.28,5.17-.25,12.94-.31,25.88,0,38.82.43,20.18.15,40.46,2.12,60.5s10.11,38.36,25.33,52.57c21.7,20.25,48.31,23.21,76.12,20.47,10.17-1,20.14-4,30.75-6.14,0,1.61,0,3.66,0,5.71.16,16.81-.14,33.65.64,50.43.57,12.38,10.84,22.34,23.23,23.44,7.71.69,15.51.58,23.27.62,11.23.06,15.1-3.91,15.1-15.18V341.24h5.59c10.36,0,20.73.08,31.09,0,7.75-.08,10.86-3.3,10.92-11,0-4.21,0-8.41,0-12.62,0-15.46-9.61-25.08-25.13-25.16-11.5-.06-23,.13-34.49-.14a9.52,9.52,0,0,1-6.09-2.78c-6.71-7.24-13.1-14.77-19.6-22.2Q386.53,227,351.25,186.56c-9-10.29-20.22-14.71-33.43-11.58-12.21,2.9-24.16,7-36.1,10.91a7.42,7.42,0,0,0-4,11.14,26.39,26.39,0,0,0,4,4.24q42.6,40.44,85.23,80.85C370.88,285.86,374.8,289.62,379.69,294.3Z" transform="translate(-64.42 -90.82)"/><path class="cls-1" d="M871.94,507v6q0,34,0,67.94c0,8.56-3.84,12.37-12.44,12.39-11.66,0-23.31.05-35,0-7.29,0-11.34-4.12-11.34-11.49q0-133.69,0-267.38c0-6.52,2.91-11.63,9-13.67,35.51-12,71.83-19,109.08-10.61,38.2,8.63,63.14,31.87,71.43,71.09a64.13,64.13,0,0,1,1.46,12.48c.19,17.79.6,35.6.08,53.37-1.22,41.28-28.6,74.3-69,83.51C915,515.22,894.81,515,875,507.83,874.3,507.57,873.53,507.41,871.94,507Zm1.81-108.5c0,17.46,0,34.92,0,52.38,0,2.77.82,4.25,3.41,5.55,12,6,24.53,6.72,37.3,3.64,18.66-4.49,29.75-16.53,30.91-35.52,1.09-18,2-36.17-1.69-54.26-3-14.6-10.3-25-24.26-30s-28.2-4.25-42.28.41c-3,1-3.39,2.82-3.38,5.48C873.78,363.57,873.75,381,873.75,398.48Z" transform="translate(-64.42 -90.82)"/><path class="cls-1" d="M1970.68,507.21v5.58q0,33.48,0,67c0,9.9-3.58,13.55-13.3,13.56-11.33,0-22.66,0-34,0-7.47,0-11.47-3.93-11.47-11.3q0-133.67,0-267.34c0-7.37,3.4-12.22,10.45-14.6,28.75-9.69,58.27-15.14,88.64-12.88,31.36,2.33,58.37,14,76.83,40.87a85.63,85.63,0,0,1,15,47.36q.57,25.71.05,51.43c-.86,42.75-32.12,78.14-74.45,84.93-18.68,3-37,2.56-55-4A23.17,23.17,0,0,0,1970.68,507.21Zm1.5-109v51.41a3.84,3.84,0,0,1,0,.48c-.42,3.33,1,5.18,4.11,6.66,11.78,5.59,24,6.35,36.44,3.45,18-4.18,30.56-17.47,31.22-33.83.78-19.09,2.22-38.25-1.84-57.24-2.63-12.29-8.7-21.87-20.29-27.26-14.7-6.83-29.77-6.1-45-1.66-3.46,1-4.81,2.84-4.77,6.58C1972.29,363.89,1972.19,381,1972.18,398.17Z" transform="translate(-64.42 -90.82)"/><path class="cls-1" d="M1096.38,372.42c11.2-1.86,21.62-4.17,32.17-5.23,44.27-4.46,81.79,15.95,90.1,68a191.87,191.87,0,0,1,1.95,29c.21,38.49.09,77,.08,115.48,0,10.21-3.48,13.7-13.64,13.72-6.16,0-12.31,0-18.46,0-15.25-.06-26.67-11.42-26.68-26.6,0-35.43.07-70.85-.08-106.27a86.44,86.44,0,0,0-1.72-17.29c-3.28-15.55-12-23.18-27.66-24.47a89.73,89.73,0,0,0-31.2,3.2c-3.76,1-5,2.8-5,6.77q.23,75.71.1,151.39c0,9.91-3.41,13.27-13.47,13.27-11.17,0-22.33,0-33.5,0-7.64,0-11.78-4-11.78-11.59q0-142.41,0-284.83c0-7.8,4.14-11.82,12-11.86,7.13,0,14.25,0,21.37,0a25.45,25.45,0,0,1,25.33,25.31c.1,18.93,0,37.85,0,56.78Z" transform="translate(-64.42 -90.82)"/><path class="cls-1" d="M1442.46,482.48c0,14.7,1.25,29.53-.25,44.07-3.6,35-23.56,57.48-57.12,66.87-30.47,8.52-60.95,7.83-89.71-6.86-26-13.24-39.78-35.43-41-64.19-1.14-27.28-1.29-54.71.13-82,1.55-29.73,18.42-55.68,51.36-66.9,30.92-10.53,62.14-10.32,92.31,2.9,26.32,11.53,41.11,32.63,43.91,61,1.47,14.88.26,30,.26,45Zm-126.56-.57h0c0,11.81-.19,23.62,0,35.42.27,13.6,8.3,24.06,21.09,27.53a57.87,57.87,0,0,0,12,1.7c22.14,1.19,35.37-11.26,35.42-33.24q.06-31.53,0-63.08c-.07-18.85-9.75-30.63-28.48-33.11-20.8-2.74-40.12,6.05-40.06,33.24C1315.92,460.88,1315.9,471.4,1315.9,481.91Z" transform="translate(-64.42 -90.82)"/><path class="cls-1" d="M1811.26,500c-16.19,0-32.38.15-48.57-.09-4.68-.08-7.12.7-6.88,6.14.3,6.56-1.31,13.35-.17,19.69,2.67,14.73,15.14,23.62,32.06,24.22,16.74.59,32.23-4.11,47.19-11.07,12-5.59,13-7.32,22.37,6.83,4.78,7.25,7.92,14.89,4.61,23.71a22,22,0,0,1-10.48,12.24,129.17,129.17,0,0,1-51.85,14.53c-19.07,1.38-37.8.08-55.83-6.87-29.88-11.5-49.14-39.07-49.39-71.11q-.28-36.39,0-72.79c.39-42.41,27.88-73.14,69.94-79,20-2.8,39.74-2.46,58.93,4.14,29.94,10.3,46,32.36,49.12,63.05,1.92,18.57,1.06,37.45,1.2,56.2,0,6.16-4.85,10.17-11.74,10.19C1844.93,500.07,1828.1,500,1811.26,500Zm9.08-35.31c-.56-9.48-.22-18.77-1.85-27.7-2.22-12.17-10.13-20-22.44-22.62a55.18,55.18,0,0,0-13.48-.71c-13.24.57-23.68,8.74-26.32,21.72-1.59,7.82-1.15,16.05-1.88,24.07-.41,4.57,1.47,5.75,5.8,5.7,18-.19,35.93-.07,53.89-.09C1815.81,465.1,1817.56,464.9,1820.34,464.73Z" transform="translate(-64.42 -90.82)"/><path class="cls-1" d="M2188.15,500c-.49,7.66-2,15-1.19,22,2.05,17.35,14.36,27.32,32.81,27.94,15.7.52,30.37-3.6,44.55-9.91,3.24-1.44,6.54-2.77,9.72-4.34,3.64-1.81,7.06-1.06,9.06,2,4.23,6.42,8.78,12.88,11.49,20,3.26,8.54-2.69,19.4-11.7,24.24a123.45,123.45,0,0,1-46.12,13.86c-19.61,2-39.07,1.31-58-5.31-31.27-10.94-51.3-36.87-52.22-69.9-.76-27.47-1.27-55.06.39-82.46,2-32.83,21.17-61.29,62.67-70.42,21.5-4.73,43.08-4.41,64.19,2.44,28.86,9.36,45.86,29.71,49.72,59.24,2.59,19.76,1.77,40,2,60,.09,6.87-4.87,10.61-12.4,10.61q-49.3,0-98.6,0Zm-1.55-35.84a6.68,6.68,0,0,0,1.77.68c20.19.08,40.39.18,60.58,0,1,0,2.79-2,2.87-3.18.34-4.65.17-9.35.14-14-.18-26.44-19.23-38.92-44.29-32.82-9.64,2.35-16,8.92-19,18.33C2185.37,443.41,2186.54,453.9,2186.6,464.2Z" transform="translate(-64.42 -90.82)"/><path class="cls-1" d="M1479.72,487.07q0-45.13,0-90.27c0-10.2,3.28-14.45,13.12-17.66,26.49-8.64,53.6-13.37,81.52-12.49,13.65.42,27.05,2.62,39.72,7.92,30,12.54,44.2,36.44,47.63,67.62,1,9,1,18.07,1,27.12.1,37.2,0,74.41,0,111.62,0,8.55-3.85,12.36-12.46,12.38-7,0-13.92.05-20.88,0-14.89-.12-25.37-10.49-25.4-25.37-.07-36.56,0-73.12-.08-109.68a81.1,81.1,0,0,0-1.32-15.42c-3.36-16.76-13.8-25.74-31.32-26-9.46-.11-18.94,1.68-28.43,2.43-3.58.28-4.8,2-4.41,5.37a33.47,33.47,0,0,1,0,3.88q0,75.22,0,150.46c0,9.14-3.39,12.53-12.62,12.56q-17,.06-34,0c-8.21,0-12.11-4-12.12-12.28Q1479.67,533.17,1479.72,487.07Z" transform="translate(-64.42 -90.82)"/><path class="cls-2" d="M379.69,294.3c-4.89-4.68-8.81-8.44-12.75-12.18q-42.62-40.43-85.23-80.85a26.39,26.39,0,0,1-4-4.24,7.42,7.42,0,0,1,4-11.14c11.94-3.95,23.89-8,36.1-10.91,13.21-3.13,24.46,1.29,33.43,11.58q35.24,40.42,70.57,80.78c6.5,7.43,12.89,15,19.6,22.2a9.52,9.52,0,0,0,6.09,2.78c11.49.27,23,.08,34.49.14,15.52.08,25.1,9.7,25.13,25.16,0,4.21,0,8.41,0,12.62-.06,7.67-3.17,10.89-10.92,11-10.36.11-20.73,0-31.09,0h-5.59V579.16c0,11.27-3.87,15.24-15.1,15.18-7.76,0-15.56.07-23.27-.62-12.39-1.1-22.66-11.06-23.23-23.44-.78-16.78-.48-33.62-.64-50.43,0-2.05,0-4.1,0-5.71-10.61,2.18-20.58,5.14-30.75,6.14-27.81,2.74-54.42-.22-76.12-20.47-15.22-14.21-23.34-32.39-25.33-52.57s-1.69-40.32-2.12-60.5c-.28-12.94-.22-25.88,0-38.82.08-4.15-1.34-5.26-5.28-5.17a194.94,194.94,0,0,1-20.37-.38c-11.15-.87-20-10.58-20.16-21.76-.1-5.17,0-10.35,0-15.53,0-7.85,3-10.77,10.91-10.77q72.13,0,144.26,0Zm17.58,108.19c0-17.95-.1-35.89.08-53.83,0-4.25-1-6-5.64-5.92-21,.22-42.06.18-63.09,0-4,0-5.24,1.13-5.21,5.2.18,24.57,0,49.14.13,73.71a124.42,124.42,0,0,0,1,15.91c2.09,15.57,11.22,25.54,26.66,28.68,14.07,2.85,27.91,1.13,41.52-3.24,3.5-1.12,4.62-3.06,4.58-6.71C397.17,438.37,397.27,420.43,397.27,402.49Z" transform="translate(-64.42 -90.82)"/><path class="cls-1" d="M397.27,402.49c0,17.94-.1,35.88.08,53.82,0,3.65-1.08,5.59-4.58,6.71-13.61,4.37-27.45,6.09-41.52,3.24-15.44-3.14-24.57-13.11-26.66-28.68a124.42,124.42,0,0,1-1-15.91c-.1-24.57,0-49.14-.13-73.71,0-4.07,1.22-5.23,5.21-5.2,21,.16,42.07.2,63.09,0,4.65-.05,5.68,1.67,5.64,5.92C397.17,366.6,397.27,384.54,397.27,402.49Z" transform="translate(-64.42 -90.82)"/></svg>